<svg xmlns="http://www.w3.org/2000/svg" xmlns:xlink="http://www.w3.org/1999/xlink" viewBox="0 0 306.12 145.69"><defs><style>.cls-1{isolation:isolate;}.cls-2{fill:url(#Degradado_sin_nombre_5);}.cls-14,.cls-3,.cls-5,.cls-8{mix-blend-mode:multiply;opacity:0.6;}.cls-3{fill:url(#Degradado_sin_nombre_6);}.cls-4{fill:url(#Degradado_sin_nombre_5-2);}.cls-5{fill:url(#Degradado_sin_nombre_6-2);}.cls-6{fill:url(#Degradado_sin_nombre_5-3);}.cls-7{fill:url(#Degradado_sin_nombre_8);}.cls-8{fill:url(#Degradado_sin_nombre_6-3);}.cls-9{fill:url(#Degradado_sin_nombre_5-4);}.cls-10{fill:url(#Degradado_sin_nombre_5-5);}.cls-11{fill:url(#Degradado_sin_nombre_5-6);}.cls-12{fill:url(#Degradado_sin_nombre_5-7);}.cls-13{fill:url(#Degradado_sin_nombre_7);}.cls-14{fill:url(#Degradado_sin_nombre_6-4);}.cls-15{fill:url(#Degradado_sin_nombre_5-8);}</style><linearGradient id="Degradado_sin_nombre_5" x1="71.32" y1="87.31" x2="45.58" y2="20.89" gradientUnits="userSpaceOnUse"><stop offset="0" stop-color="#604aea"/><stop offset="0.12" stop-color="#714fed"/><stop offset="0.53" stop-color="#a95ff7"/><stop offset="0.84" stop-color="#cc68fd"/><stop offset="1" stop-color="#d96cff"/></linearGradient><linearGradient id="Degradado_sin_nombre_6" x1="71.32" y1="87.31" x2="45.58" y2="20.89" gradientUnits="userSpaceOnUse"><stop offset="0" stop-color="#22067e"/><stop offset="0.05" stop-color="#481b99" stop-opacity="0.79"/><stop offset="0.15" stop-color="#873dc5" stop-opacity="0.45"/><stop offset="0.24" stop-color="#b456e5" stop-opacity="0.2"/><stop offset="0.32" stop-color="#d066f8" stop-opacity="0.05"/><stop offset="0.37" stop-color="#da6bff" stop-opacity="0"/></linearGradient><linearGradient id="Degradado_sin_nombre_5-2" x1="113.97" y1="90.5" x2="138.88" y2="146.96" xlink:href="#Degradado_sin_nombre_5"/><linearGradient id="Degradado_sin_nombre_6-2" x1="117.27" y1="97.97" x2="142.17" y2="154.42" xlink:href="#Degradado_sin_nombre_6"/><linearGradient id="Degradado_sin_nombre_5-3" x1="202.06" y1="71.19" x2="205.38" y2="95.54" xlink:href="#Degradado_sin_nombre_5"/><linearGradient id="Degradado_sin_nombre_8" x1="175.18" y1="114.91" x2="263.74" y2="145.35" gradientUnits="userSpaceOnUse"><stop offset="0" stop-color="#604aea"/><stop offset="0.02" stop-color="#654beb"/><stop offset="0.24" stop-color="#8e57f2"/><stop offset="0.45" stop-color="#af60f8"/><stop offset="0.65" stop-color="#c667fc"/><stop offset="0.84" stop-color="#d46bfe"/><stop offset="1" stop-color="#d96cff"/></linearGradient><linearGradient id="Degradado_sin_nombre_6-3" x1="175.18" y1="114.91" x2="263.74" y2="145.35" xlink:href="#Degradado_sin_nombre_6"/><linearGradient id="Degradado_sin_nombre_5-4" x1="0" y1="54.14" x2="306.12" y2="54.14" xlink:href="#Degradado_sin_nombre_5"/><linearGradient id="Degradado_sin_nombre_5-5" x1="0" y1="98.81" x2="306.12" y2="98.81" xlink:href="#Degradado_sin_nombre_5"/><linearGradient id="Degradado_sin_nombre_5-6" x1="100.18" y1="66.07" x2="283.09" y2="66.07" xlink:href="#Degradado_sin_nombre_5"/><linearGradient id="Degradado_sin_nombre_5-7" x1="0" y1="66.07" x2="306.12" y2="66.07" xlink:href="#Degradado_sin_nombre_5"/><linearGradient id="Degradado_sin_nombre_7" x1="232.5" y1="44.4" x2="183.24" y2="16.72" gradientUnits="userSpaceOnUse"><stop offset="0" stop-color="#604aea"/><stop offset="0.06" stop-color="#6e4eec"/><stop offset="0.26" stop-color="#9459f3"/><stop offset="0.45" stop-color="#b261f8"/><stop offset="0.64" stop-color="#c867fc"/><stop offset="0.83" stop-color="#d56bfe"/><stop offset="1" stop-color="#d96cff"/></linearGradient><linearGradient id="Degradado_sin_nombre_6-4" x1="232.5" y1="44.4" x2="183.24" y2="16.72" xlink:href="#Degradado_sin_nombre_6"/><linearGradient id="Degradado_sin_nombre_5-8" x1="246.69" y1="50.56" x2="236.72" y2="-1.75" xlink:href="#Degradado_sin_nombre_5"/></defs><g class="cls-1"><g id="Layer_2" data-name="Layer 2"><g id="OBJECTS"><path class="cls-2" d="M71.08,82.13l8.73-21L86.39,77C98.58,73.1,112,69.45,126.7,66.18L116.59,41.77l-9.76-23.69a29.23,29.23,0,0,0-54,0v.21l-9.14,22-28,67.48A321.91,321.91,0,0,1,71.08,82.13Z"/><path class="cls-3" d="M71.08,82.13l8.73-21L86.39,77C98.58,73.1,112,69.45,126.7,66.18L116.59,41.77l-9.76-23.69a29.23,29.23,0,0,0-54,0v.21l-9.14,22-28,67.48A321.91,321.91,0,0,1,71.08,82.13Z"/><path class="cls-4" d="M95.41,98.69h0l12.08,29.08a29.07,29.07,0,0,0,26.84,17.92h25.29l-25-60.28Z"/><path class="cls-5" d="M95.41,98.69h0l12.08,29.08a29.07,29.07,0,0,0,26.84,17.92h25.29l-25-60.28Z"/><path class="cls-6" d="M184,104.75l73.43-47.1A487.45,487.45,0,0,0,158.52,82h0a20.79,20.79,0,0,0-8,25.47l14.85,35.88,1,2.39C158.91,116.82,184,104.75,184,104.75Z"/><path class="cls-7" d="M237.58,104.75H184s-25,12.07-17.58,40.94H283.09l-12.25-21.58A38.25,38.25,0,0,0,237.58,104.75Z"/><path class="cls-8" d="M237.58,104.75H184s-25,12.07-17.58,40.94H283.09l-12.25-21.58A38.25,38.25,0,0,0,237.58,104.75Z"/><path class="cls-9" d="M306.12,53.49c-12.87-1.42-25.5-2.36-37.81-2.86l-10.93,7C286.86,53.53,306.12,53.49,306.12,53.49Z"/><path class="cls-10" d="M132.39,65C39.33,92.07,0,145.69,0,145.69H44.68s19.39-20.86,79.62-49.45c11.43-5.42,22.9-10.15,34.22-14.29l46.85-30C178.13,54.26,153.48,58.81,132.39,65Z"/><path class="cls-11" d="M268.31,50.63a504.68,504.68,0,0,0-62.94,1.3L158.52,82a487.45,487.45,0,0,1,98.86-24.3Z"/><path class="cls-12" d="M268.31,50.63a504.68,504.68,0,0,0-62.94,1.3L158.52,82a487.45,487.45,0,0,1,98.86-24.3Z"/><path class="cls-13" d="M257.47.21H100.18A35.55,35.55,0,0,1,112.6,15.7l9.76,23.69.73,1.76H222.2S252,31.2,257.47.21Z"/><path class="cls-14" d="M257.47.21H100.18A35.55,35.55,0,0,1,112.6,15.7l9.76,23.69.73,1.76H222.2S252,31.2,257.47.21Z"/><path class="cls-15" d="M257.47.21c-4.28,24-35.27,40.94-35.27,40.94L205.37,51.93a504.68,504.68,0,0,1,62.94-1.3l3-1.92a25.61,25.61,0,0,0,11.79-21.56V25.83A25.62,25.62,0,0,0,257.47.21Z"/></g></g></g></svg>