<svg width="251" height="254" viewBox="0 0 251 254" fill="none" xmlns="http://www.w3.org/2000/svg">
<path d="M25.7293 246.547V238.625H27.8777V246.547C27.8777 247.302 27.7137 247.951 27.3856 248.492C27.0574 249.029 26.6095 249.44 26.0418 249.727C25.4741 250.013 24.8335 250.156 24.1199 250.156C23.3856 250.156 22.7345 250.034 22.1668 249.789C21.5991 249.539 21.1538 249.159 20.8309 248.648C20.5132 248.138 20.3543 247.49 20.3543 246.703H22.5106C22.5106 247.13 22.5757 247.474 22.7059 247.734C22.8361 247.995 23.021 248.182 23.2606 248.297C23.5054 248.411 23.7918 248.469 24.1199 248.469C24.4376 248.469 24.7163 248.396 24.9559 248.25C25.2007 248.099 25.3908 247.88 25.5262 247.594C25.6616 247.307 25.7293 246.958 25.7293 246.547Z" fill="#1C1948"/>
<path d="M34.9016 247.992V241.547H36.9797V250H35.0266L34.9016 247.992ZM35.1672 246.242L35.8078 246.227C35.8078 246.794 35.7453 247.318 35.6203 247.797C35.4953 248.276 35.3 248.693 35.0344 249.047C34.774 249.396 34.4432 249.669 34.0422 249.867C33.6411 250.06 33.1672 250.156 32.6203 250.156C32.2036 250.156 31.8234 250.099 31.4797 249.984C31.1359 249.865 30.8391 249.68 30.5891 249.43C30.3443 249.174 30.1542 248.849 30.0187 248.453C29.8833 248.052 29.8156 247.57 29.8156 247.008V241.547H31.8781V247.023C31.8781 247.305 31.9094 247.539 31.9719 247.727C32.0396 247.914 32.1307 248.068 32.2453 248.188C32.3651 248.302 32.5031 248.385 32.6594 248.438C32.8208 248.484 32.9927 248.508 33.175 248.508C33.675 248.508 34.0682 248.409 34.3547 248.211C34.6463 248.008 34.8547 247.737 34.9797 247.398C35.1047 247.055 35.1672 246.669 35.1672 246.242Z" fill="#1C1948"/>
<path d="M43.4722 247.688C43.4722 247.51 43.4254 247.352 43.3316 247.211C43.2379 247.07 43.0608 246.943 42.8004 246.828C42.5452 246.708 42.1702 246.596 41.6754 246.492C41.2379 246.398 40.8342 246.281 40.4644 246.141C40.0946 246 39.7769 245.831 39.5113 245.633C39.2457 245.43 39.0373 245.193 38.8863 244.922C38.7405 244.646 38.6676 244.328 38.6676 243.969C38.6676 243.62 38.7431 243.292 38.8941 242.984C39.0452 242.672 39.2639 242.398 39.5504 242.164C39.8368 241.924 40.1858 241.737 40.5972 241.602C41.0087 241.461 41.4722 241.391 41.9879 241.391C42.7066 241.391 43.3238 241.508 43.8394 241.742C44.3603 241.977 44.7587 242.299 45.0347 242.711C45.3108 243.117 45.4488 243.576 45.4488 244.086H43.3863C43.3863 243.862 43.3342 243.659 43.2301 243.477C43.1311 243.294 42.9775 243.148 42.7691 243.039C42.5608 242.924 42.2978 242.867 41.9801 242.867C41.6936 242.867 41.4514 242.914 41.2535 243.008C41.0608 243.102 40.915 243.224 40.816 243.375C40.717 243.526 40.6676 243.693 40.6676 243.875C40.6676 244.01 40.6936 244.133 40.7457 244.242C40.803 244.346 40.8941 244.443 41.0191 244.531C41.1441 244.62 41.3134 244.701 41.5269 244.773C41.7457 244.846 42.0139 244.917 42.3316 244.984C42.9618 245.109 43.5113 245.276 43.9801 245.484C44.454 245.688 44.8238 245.958 45.0894 246.297C45.3551 246.635 45.4879 247.068 45.4879 247.594C45.4879 247.969 45.4071 248.312 45.2457 248.625C45.0842 248.932 44.8498 249.201 44.5426 249.43C44.2353 249.659 43.8681 249.839 43.441 249.969C43.0139 250.094 42.5321 250.156 41.9957 250.156C41.2196 250.156 40.5634 250.018 40.0269 249.742C39.4905 249.461 39.0842 249.107 38.8082 248.68C38.5321 248.247 38.3941 247.799 38.3941 247.336H40.3707C40.3863 247.664 40.4748 247.927 40.6363 248.125C40.7978 248.323 41.0009 248.466 41.2457 248.555C41.4957 248.638 41.7587 248.68 42.0347 248.68C42.3472 248.68 42.6103 248.638 42.8238 248.555C43.0373 248.466 43.1988 248.349 43.3082 248.203C43.4176 248.052 43.4722 247.88 43.4722 247.688Z" fill="#1C1948"/>
<path d="M51.0742 241.547V243.031H46.2304V241.547H51.0742ZM47.5273 239.469H49.5976V247.562C49.5976 247.812 49.6315 248.005 49.6992 248.141C49.7669 248.276 49.8685 248.367 50.0039 248.414C50.1393 248.461 50.3007 248.484 50.4882 248.484C50.6237 248.484 50.7487 248.477 50.8632 248.461C50.9778 248.445 51.0742 248.43 51.1523 248.414L51.1601 249.961C50.9882 250.018 50.7929 250.065 50.5742 250.102C50.3606 250.138 50.1185 250.156 49.8476 250.156C49.3841 250.156 48.9778 250.078 48.6289 249.922C48.2799 249.76 48.0091 249.503 47.8164 249.148C47.6237 248.789 47.5273 248.315 47.5273 247.727V239.469Z" fill="#1C1948"/>
<path d="M56.0984 245.859V245.695C56.0984 245.076 56.1869 244.505 56.364 243.984C56.5411 243.458 56.7989 243.003 57.1374 242.617C57.476 242.232 57.89 241.932 58.3796 241.719C58.8692 241.5 59.4265 241.391 60.0515 241.391C60.6869 241.391 61.2494 241.5 61.739 241.719C62.2338 241.932 62.6505 242.232 62.989 242.617C63.3275 243.003 63.5854 243.458 63.7624 243.984C63.9395 244.505 64.0281 245.076 64.0281 245.695V245.859C64.0281 246.474 63.9395 247.044 63.7624 247.57C63.5854 248.091 63.3275 248.547 62.989 248.938C62.6505 249.323 62.2364 249.622 61.7468 249.836C61.2572 250.049 60.6973 250.156 60.0671 250.156C59.4421 250.156 58.8822 250.049 58.3874 249.836C57.8926 249.622 57.476 249.323 57.1374 248.938C56.7989 248.547 56.5411 248.091 56.364 247.57C56.1869 247.044 56.0984 246.474 56.0984 245.859ZM58.1609 245.695V245.859C58.1609 246.229 58.1973 246.576 58.2702 246.898C58.3432 247.221 58.4551 247.505 58.6062 247.75C58.7572 247.995 58.9525 248.188 59.1921 248.328C59.4369 248.464 59.7286 248.531 60.0671 248.531C60.4005 248.531 60.6869 248.464 60.9265 248.328C61.1661 248.188 61.3614 247.995 61.5124 247.75C61.6687 247.505 61.7833 247.221 61.8562 246.898C61.9291 246.576 61.9656 246.229 61.9656 245.859V245.695C61.9656 245.331 61.9291 244.99 61.8562 244.672C61.7833 244.349 61.6687 244.065 61.5124 243.82C61.3614 243.57 61.1635 243.375 60.9187 243.234C60.6791 243.089 60.39 243.016 60.0515 243.016C59.7182 243.016 59.4317 243.089 59.1921 243.234C58.9525 243.375 58.7572 243.57 58.6062 243.82C58.4551 244.065 58.3432 244.349 58.2702 244.672C58.1973 244.99 58.1609 245.331 58.1609 245.695Z" fill="#1C1948"/>
<path d="M67.5675 243.352V250H65.505V241.547H67.4425L67.5675 243.352ZM67.2394 245.469H66.63C66.6352 244.854 66.7185 244.297 66.88 243.797C67.0415 243.297 67.268 242.867 67.5597 242.508C67.8566 242.148 68.2081 241.872 68.6144 241.68C69.0206 241.487 69.4737 241.391 69.9737 241.391C70.38 241.391 70.7472 241.448 71.0753 241.562C71.4034 241.677 71.6847 241.859 71.9191 242.109C72.1586 242.359 72.3409 242.688 72.4659 243.094C72.5961 243.495 72.6612 243.99 72.6612 244.578V250H70.5831V244.562C70.5831 244.177 70.5258 243.872 70.4112 243.648C70.3019 243.424 70.1404 243.266 69.9269 243.172C69.7185 243.078 69.4607 243.031 69.1534 243.031C68.8357 243.031 68.5571 243.096 68.3175 243.227C68.0831 243.352 67.8852 243.526 67.7237 243.75C67.5675 243.974 67.4477 244.232 67.3644 244.523C67.281 244.815 67.2394 245.13 67.2394 245.469Z" fill="#1C1948"/>
<path d="M78.2944 250.156C77.6538 250.156 77.0783 250.052 76.5679 249.844C76.0575 249.635 75.6226 249.346 75.2632 248.977C74.909 248.602 74.6356 248.167 74.4429 247.672C74.2554 247.172 74.1616 246.635 74.1616 246.062V245.75C74.1616 245.099 74.2554 244.508 74.4429 243.977C74.6304 243.44 74.896 242.979 75.2397 242.594C75.5835 242.208 75.995 241.911 76.4741 241.703C76.9533 241.495 77.4819 241.391 78.0601 241.391C78.659 241.391 79.1877 241.492 79.646 241.695C80.1043 241.893 80.4871 242.174 80.7944 242.539C81.1017 242.904 81.3335 243.341 81.4897 243.852C81.646 244.357 81.7241 244.917 81.7241 245.531V246.398H75.0991V244.977H79.6929V244.82C79.6825 244.492 79.62 244.193 79.5054 243.922C79.3908 243.646 79.2137 243.427 78.9741 243.266C78.7345 243.099 78.4246 243.016 78.0444 243.016C77.7371 243.016 77.4689 243.083 77.2397 243.219C77.0158 243.349 76.8283 243.536 76.6772 243.781C76.5314 244.021 76.422 244.307 76.3491 244.641C76.2762 244.974 76.2397 245.344 76.2397 245.75V246.062C76.2397 246.417 76.2866 246.745 76.3804 247.047C76.4793 247.349 76.6226 247.612 76.8101 247.836C77.0028 248.055 77.2319 248.227 77.4976 248.352C77.7684 248.471 78.0757 248.531 78.4194 248.531C78.8517 248.531 79.2424 248.448 79.5913 248.281C79.9455 248.109 80.2528 247.857 80.5132 247.523L81.5522 248.602C81.3752 248.862 81.1356 249.112 80.8335 249.352C80.5366 249.591 80.1772 249.786 79.7554 249.938C79.3335 250.083 78.8465 250.156 78.2944 250.156Z" fill="#1C1948"/>
<path d="M93.2327 247.047C93.2327 246.828 93.1988 246.633 93.1311 246.461C93.0686 246.284 92.9514 246.125 92.7796 245.984C92.6129 245.839 92.3759 245.698 92.0686 245.562C91.7665 245.422 91.3759 245.276 90.8967 245.125C90.3655 244.958 89.8707 244.771 89.4124 244.562C88.954 244.354 88.5504 244.112 88.2014 243.836C87.8577 243.56 87.5895 243.242 87.3967 242.883C87.204 242.518 87.1077 242.096 87.1077 241.617C87.1077 241.148 87.2066 240.721 87.4046 240.336C87.6077 239.951 87.8941 239.62 88.2639 239.344C88.6337 239.062 89.0686 238.846 89.5686 238.695C90.0738 238.544 90.6311 238.469 91.2405 238.469C92.0842 238.469 92.8134 238.622 93.428 238.93C94.0478 239.237 94.527 239.654 94.8655 240.18C95.204 240.706 95.3733 241.297 95.3733 241.953H93.2327C93.2327 241.599 93.1572 241.286 93.0061 241.016C92.8603 240.745 92.6363 240.531 92.3342 240.375C92.0374 240.219 91.6624 240.141 91.2092 240.141C90.7717 240.141 90.4072 240.206 90.1155 240.336C89.829 240.466 89.6129 240.643 89.4671 240.867C89.3264 241.091 89.2561 241.341 89.2561 241.617C89.2561 241.826 89.3056 242.013 89.4046 242.18C89.5035 242.341 89.652 242.495 89.8499 242.641C90.0478 242.781 90.2926 242.914 90.5842 243.039C90.8811 243.159 91.2249 243.279 91.6155 243.398C92.2405 243.586 92.7874 243.794 93.2561 244.023C93.7301 244.253 94.1233 244.513 94.4358 244.805C94.7535 245.096 94.9905 245.424 95.1467 245.789C95.3082 246.154 95.3889 246.568 95.3889 247.031C95.3889 247.521 95.2926 247.958 95.0999 248.344C94.9072 248.729 94.6311 249.057 94.2717 249.328C93.9124 249.599 93.4801 249.805 92.9749 249.945C92.4749 250.086 91.915 250.156 91.2952 250.156C90.7431 250.156 90.1962 250.083 89.6546 249.938C89.1181 249.786 88.6311 249.562 88.1936 249.266C87.7561 248.964 87.4072 248.583 87.1467 248.125C86.8863 247.661 86.7561 247.12 86.7561 246.5H88.9124C88.9124 246.859 88.9697 247.167 89.0842 247.422C89.204 247.672 89.3707 247.878 89.5842 248.039C89.803 248.195 90.0582 248.31 90.3499 248.383C90.6415 248.456 90.9566 248.492 91.2952 248.492C91.7327 248.492 92.0921 248.432 92.3733 248.312C92.6598 248.188 92.8733 248.016 93.0139 247.797C93.1598 247.578 93.2327 247.328 93.2327 247.047Z" fill="#1C1948"/>
<path d="M100.374 248.531C100.665 248.531 100.926 248.474 101.155 248.359C101.384 248.245 101.566 248.083 101.702 247.875C101.842 247.667 101.918 247.424 101.928 247.148H103.874C103.863 247.721 103.702 248.234 103.389 248.688C103.077 249.141 102.66 249.5 102.139 249.766C101.624 250.026 101.046 250.156 100.405 250.156C99.7539 250.156 99.1862 250.047 98.7018 249.828C98.2174 249.609 97.8138 249.305 97.4909 248.914C97.1732 248.523 96.9336 248.07 96.7721 247.555C96.6159 247.039 96.5378 246.487 96.5378 245.898V245.648C96.5378 245.06 96.6159 244.508 96.7721 243.992C96.9336 243.477 97.1732 243.023 97.4909 242.633C97.8138 242.242 98.2174 241.938 98.7018 241.719C99.1862 241.5 99.7513 241.391 100.397 241.391C101.079 241.391 101.678 241.523 102.194 241.789C102.715 242.055 103.121 242.43 103.413 242.914C103.71 243.398 103.863 243.969 103.874 244.625H101.928C101.918 244.323 101.85 244.052 101.725 243.812C101.6 243.573 101.423 243.38 101.194 243.234C100.965 243.089 100.686 243.016 100.358 243.016C100.009 243.016 99.7174 243.089 99.4831 243.234C99.2539 243.38 99.0742 243.581 98.944 243.836C98.819 244.086 98.7305 244.367 98.6784 244.68C98.6315 244.987 98.6081 245.31 98.6081 245.648V245.898C98.6081 246.242 98.6315 246.57 98.6784 246.883C98.7305 247.195 98.819 247.477 98.944 247.727C99.0742 247.971 99.2539 248.167 99.4831 248.312C99.7174 248.458 100.014 248.531 100.374 248.531Z" fill="#1C1948"/>
<path d="M109.921 248.203V244.305C109.921 244.018 109.871 243.771 109.772 243.562C109.674 243.354 109.522 243.193 109.319 243.078C109.116 242.964 108.858 242.906 108.546 242.906C108.27 242.906 108.028 242.953 107.819 243.047C107.616 243.141 107.46 243.273 107.351 243.445C107.241 243.612 107.187 243.805 107.187 244.023H105.116C105.116 243.674 105.2 243.344 105.366 243.031C105.533 242.714 105.77 242.432 106.077 242.188C106.39 241.938 106.762 241.742 107.194 241.602C107.632 241.461 108.121 241.391 108.663 241.391C109.304 241.391 109.874 241.5 110.374 241.719C110.879 241.932 111.275 242.255 111.562 242.688C111.853 243.12 111.999 243.664 111.999 244.32V248.008C111.999 248.43 112.025 248.792 112.077 249.094C112.134 249.391 112.218 249.648 112.327 249.867V250H110.226C110.127 249.786 110.051 249.516 109.999 249.188C109.947 248.854 109.921 248.526 109.921 248.203ZM110.21 244.852L110.226 246.078H108.921C108.598 246.078 108.314 246.112 108.069 246.18C107.825 246.242 107.624 246.336 107.468 246.461C107.312 246.581 107.194 246.727 107.116 246.898C107.038 247.065 106.999 247.255 106.999 247.469C106.999 247.677 107.046 247.865 107.14 248.031C107.239 248.198 107.379 248.331 107.562 248.43C107.749 248.523 107.968 248.57 108.218 248.57C108.582 248.57 108.9 248.497 109.171 248.352C109.442 248.201 109.653 248.018 109.804 247.805C109.955 247.591 110.036 247.388 110.046 247.195L110.64 248.086C110.567 248.299 110.457 248.526 110.312 248.766C110.166 249.005 109.978 249.229 109.749 249.438C109.52 249.646 109.244 249.818 108.921 249.953C108.598 250.089 108.223 250.156 107.796 250.156C107.249 250.156 106.759 250.047 106.327 249.828C105.895 249.609 105.554 249.31 105.304 248.93C105.054 248.549 104.929 248.117 104.929 247.633C104.929 247.185 105.012 246.789 105.179 246.445C105.345 246.102 105.593 245.812 105.921 245.578C106.249 245.339 106.655 245.159 107.14 245.039C107.629 244.914 108.189 244.852 108.819 244.852H110.21Z" fill="#1C1948"/>
<path d="M115.898 243.352V250H113.835V241.547H115.773L115.898 243.352ZM115.57 245.469H114.96C114.966 244.854 115.049 244.297 115.21 243.797C115.372 243.297 115.598 242.867 115.89 242.508C116.187 242.148 116.538 241.872 116.945 241.68C117.351 241.487 117.804 241.391 118.304 241.391C118.71 241.391 119.078 241.448 119.406 241.562C119.734 241.677 120.015 241.859 120.249 242.109C120.489 242.359 120.671 242.688 120.796 243.094C120.927 243.495 120.992 243.99 120.992 244.578V250H118.913V244.562C118.913 244.177 118.856 243.872 118.742 243.648C118.632 243.424 118.471 243.266 118.257 243.172C118.049 243.078 117.791 243.031 117.484 243.031C117.166 243.031 116.887 243.096 116.648 243.227C116.413 243.352 116.216 243.526 116.054 243.75C115.898 243.974 115.778 244.232 115.695 244.523C115.611 244.815 115.57 245.13 115.57 245.469Z" fill="#1C1948"/>
<path d="M129.531 250H127.453V240.766C127.453 240.13 127.576 239.596 127.82 239.164C128.065 238.727 128.414 238.396 128.867 238.172C129.32 237.948 129.854 237.836 130.469 237.836C130.672 237.836 130.865 237.849 131.047 237.875C131.235 237.901 131.419 237.938 131.602 237.984L131.563 239.555C131.464 239.529 131.354 239.51 131.235 239.5C131.12 239.49 130.992 239.484 130.852 239.484C130.57 239.484 130.331 239.534 130.133 239.633C129.935 239.732 129.784 239.878 129.68 240.07C129.581 240.258 129.531 240.49 129.531 240.766V250ZM131.242 241.547V243.031H126.18V241.547H131.242Z" fill="#1C1948"/>
<path d="M132.165 245.859V245.695C132.165 245.076 132.253 244.505 132.43 243.984C132.607 243.458 132.865 243.003 133.204 242.617C133.542 242.232 133.956 241.932 134.446 241.719C134.935 241.5 135.493 241.391 136.118 241.391C136.753 241.391 137.316 241.5 137.805 241.719C138.3 241.932 138.717 242.232 139.055 242.617C139.394 243.003 139.652 243.458 139.829 243.984C140.006 244.505 140.094 245.076 140.094 245.695V245.859C140.094 246.474 140.006 247.044 139.829 247.57C139.652 248.091 139.394 248.547 139.055 248.938C138.717 249.323 138.303 249.622 137.813 249.836C137.323 250.049 136.764 250.156 136.133 250.156C135.508 250.156 134.948 250.049 134.454 249.836C133.959 249.622 133.542 249.323 133.204 248.938C132.865 248.547 132.607 248.091 132.43 247.57C132.253 247.044 132.165 246.474 132.165 245.859ZM134.227 245.695V245.859C134.227 246.229 134.264 246.576 134.336 246.898C134.409 247.221 134.521 247.505 134.672 247.75C134.823 247.995 135.019 248.188 135.258 248.328C135.503 248.464 135.795 248.531 136.133 248.531C136.467 248.531 136.753 248.464 136.993 248.328C137.232 248.188 137.428 247.995 137.579 247.75C137.735 247.505 137.85 247.221 137.922 246.898C137.995 246.576 138.032 246.229 138.032 245.859V245.695C138.032 245.331 137.995 244.99 137.922 244.672C137.85 244.349 137.735 244.065 137.579 243.82C137.428 243.57 137.23 243.375 136.985 243.234C136.745 243.089 136.456 243.016 136.118 243.016C135.784 243.016 135.498 243.089 135.258 243.234C135.019 243.375 134.823 243.57 134.672 243.82C134.521 244.065 134.409 244.349 134.336 244.672C134.264 244.99 134.227 245.331 134.227 245.695Z" fill="#1C1948"/>
<path d="M143.673 243.273V250H141.61V241.547H143.563L143.673 243.273ZM146.243 241.492L146.212 243.414C146.097 243.393 145.967 243.378 145.821 243.367C145.681 243.357 145.548 243.352 145.423 243.352C145.105 243.352 144.826 243.396 144.587 243.484C144.347 243.568 144.147 243.69 143.985 243.852C143.829 244.013 143.709 244.211 143.626 244.445C143.543 244.674 143.496 244.935 143.485 245.227L143.04 245.172C143.04 244.635 143.095 244.138 143.204 243.68C143.313 243.221 143.472 242.82 143.681 242.477C143.889 242.133 144.149 241.867 144.462 241.68C144.78 241.487 145.144 241.391 145.556 241.391C145.67 241.391 145.793 241.401 145.923 241.422C146.058 241.438 146.165 241.461 146.243 241.492Z" fill="#1C1948"/>
<path d="M155.189 250.156C154.549 250.156 153.973 250.052 153.463 249.844C152.952 249.635 152.517 249.346 152.158 248.977C151.804 248.602 151.53 248.167 151.338 247.672C151.15 247.172 151.056 246.635 151.056 246.062V245.75C151.056 245.099 151.15 244.508 151.338 243.977C151.525 243.44 151.791 242.979 152.134 242.594C152.478 242.208 152.89 241.911 153.369 241.703C153.848 241.495 154.377 241.391 154.955 241.391C155.554 241.391 156.082 241.492 156.541 241.695C156.999 241.893 157.382 242.174 157.689 242.539C157.996 242.904 158.228 243.341 158.384 243.852C158.541 244.357 158.619 244.917 158.619 245.531V246.398H151.994V244.977H156.588V244.82C156.577 244.492 156.515 244.193 156.4 243.922C156.286 243.646 156.108 243.427 155.869 243.266C155.629 243.099 155.319 243.016 154.939 243.016C154.632 243.016 154.364 243.083 154.134 243.219C153.911 243.349 153.723 243.536 153.572 243.781C153.426 244.021 153.317 244.307 153.244 244.641C153.171 244.974 153.134 245.344 153.134 245.75V246.062C153.134 246.417 153.181 246.745 153.275 247.047C153.374 247.349 153.517 247.612 153.705 247.836C153.898 248.055 154.127 248.227 154.392 248.352C154.663 248.471 154.97 248.531 155.314 248.531C155.746 248.531 156.137 248.448 156.486 248.281C156.84 248.109 157.148 247.857 157.408 247.523L158.447 248.602C158.27 248.862 158.03 249.112 157.728 249.352C157.431 249.591 157.072 249.786 156.65 249.938C156.228 250.083 155.741 250.156 155.189 250.156Z" fill="#1C1948"/>
<path d="M162.713 248.438L164.682 241.547H166.838L163.94 250H162.627L162.713 248.438ZM161.275 241.547L163.268 248.453L163.338 250H162.018L159.111 241.547H161.275Z" fill="#1C1948"/>
<path d="M171.627 250.156C170.987 250.156 170.411 250.052 169.901 249.844C169.39 249.635 168.956 249.346 168.596 248.977C168.242 248.602 167.969 248.167 167.776 247.672C167.588 247.172 167.495 246.635 167.495 246.062V245.75C167.495 245.099 167.588 244.508 167.776 243.977C167.963 243.44 168.229 242.979 168.573 242.594C168.917 242.208 169.328 241.911 169.807 241.703C170.286 241.495 170.815 241.391 171.393 241.391C171.992 241.391 172.521 241.492 172.979 241.695C173.437 241.893 173.82 242.174 174.127 242.539C174.435 242.904 174.667 243.341 174.823 243.852C174.979 244.357 175.057 244.917 175.057 245.531V246.398H168.432V244.977H173.026V244.82C173.015 244.492 172.953 244.193 172.838 243.922C172.724 243.646 172.547 243.427 172.307 243.266C172.068 243.099 171.758 243.016 171.377 243.016C171.07 243.016 170.802 243.083 170.573 243.219C170.349 243.349 170.161 243.536 170.01 243.781C169.864 244.021 169.755 244.307 169.682 244.641C169.609 244.974 169.573 245.344 169.573 245.75V246.062C169.573 246.417 169.62 246.745 169.713 247.047C169.812 247.349 169.956 247.612 170.143 247.836C170.336 248.055 170.565 248.227 170.831 248.352C171.101 248.471 171.409 248.531 171.752 248.531C172.185 248.531 172.575 248.448 172.924 248.281C173.278 248.109 173.586 247.857 173.846 247.523L174.885 248.602C174.708 248.862 174.469 249.112 174.167 249.352C173.87 249.591 173.51 249.786 173.088 249.938C172.667 250.083 172.18 250.156 171.627 250.156Z" fill="#1C1948"/>
<path d="M178.518 243.273V250H176.456V241.547H178.409L178.518 243.273ZM181.089 241.492L181.057 243.414C180.943 243.393 180.813 243.378 180.667 243.367C180.526 243.357 180.393 243.352 180.268 243.352C179.951 243.352 179.672 243.396 179.432 243.484C179.193 243.568 178.992 243.69 178.831 243.852C178.675 244.013 178.555 244.211 178.472 244.445C178.388 244.674 178.341 244.935 178.331 245.227L177.886 245.172C177.886 244.635 177.94 244.138 178.05 243.68C178.159 243.221 178.318 242.82 178.526 242.477C178.735 242.133 178.995 241.867 179.307 241.68C179.625 241.487 179.99 241.391 180.401 241.391C180.516 241.391 180.638 241.401 180.768 241.422C180.904 241.438 181.011 241.461 181.089 241.492Z" fill="#1C1948"/>
<path d="M184.855 249.062L187.12 241.547H189.331L185.941 251.281C185.863 251.49 185.761 251.716 185.636 251.961C185.516 252.206 185.355 252.438 185.152 252.656C184.949 252.88 184.693 253.062 184.386 253.203C184.084 253.344 183.717 253.414 183.284 253.414C183.097 253.414 182.93 253.401 182.784 253.375C182.639 253.349 182.485 253.315 182.324 253.273V251.727C182.376 251.732 182.435 251.734 182.503 251.734C182.576 251.74 182.639 251.742 182.691 251.742C182.993 251.742 183.243 251.706 183.441 251.633C183.639 251.565 183.797 251.453 183.917 251.297C184.042 251.146 184.146 250.948 184.23 250.703L184.855 249.062ZM183.738 241.547L185.652 247.773L185.988 249.953L184.566 250.211L181.511 241.547H183.738Z" fill="#1C1948"/>
<path d="M194.347 241.547V243.031H189.504V241.547H194.347ZM190.8 239.469H192.871V247.562C192.871 247.812 192.905 248.005 192.972 248.141C193.04 248.276 193.142 248.367 193.277 248.414C193.412 248.461 193.574 248.484 193.761 248.484C193.897 248.484 194.022 248.477 194.136 248.461C194.251 248.445 194.347 248.43 194.425 248.414L194.433 249.961C194.261 250.018 194.066 250.065 193.847 250.102C193.634 250.138 193.392 250.156 193.121 250.156C192.657 250.156 192.251 250.078 191.902 249.922C191.553 249.76 191.282 249.503 191.089 249.148C190.897 248.789 190.8 248.315 190.8 247.727V239.469Z" fill="#1C1948"/>
<path d="M197.762 238V250H195.691V238H197.762ZM197.434 245.469H196.824C196.824 244.88 196.902 244.339 197.059 243.844C197.215 243.349 197.436 242.919 197.723 242.555C198.009 242.185 198.35 241.898 198.746 241.695C199.147 241.492 199.59 241.391 200.074 241.391C200.491 241.391 200.869 241.451 201.207 241.57C201.551 241.685 201.845 241.87 202.09 242.125C202.335 242.38 202.522 242.714 202.652 243.125C202.788 243.531 202.855 244.026 202.855 244.609V250H200.777V244.594C200.777 244.203 200.72 243.896 200.605 243.672C200.491 243.443 200.327 243.279 200.113 243.18C199.905 243.081 199.647 243.031 199.34 243.031C199.007 243.031 198.72 243.096 198.48 243.227C198.241 243.352 198.043 243.526 197.887 243.75C197.736 243.974 197.621 244.232 197.543 244.523C197.47 244.815 197.434 245.13 197.434 245.469Z" fill="#1C1948"/>
<path d="M206.879 241.547V250H204.809V241.547H206.879ZM204.668 239.336C204.668 239.029 204.773 238.773 204.981 238.57C205.194 238.367 205.481 238.266 205.84 238.266C206.2 238.266 206.483 238.367 206.692 238.57C206.905 238.773 207.012 239.029 207.012 239.336C207.012 239.638 206.905 239.891 206.692 240.094C206.483 240.297 206.2 240.398 205.84 240.398C205.481 240.398 205.194 240.297 204.981 240.094C204.773 239.891 204.668 239.638 204.668 239.336Z" fill="#1C1948"/>
<path d="M210.887 243.352V250H208.825V241.547H210.762L210.887 243.352ZM210.559 245.469H209.95C209.955 244.854 210.039 244.297 210.2 243.797C210.361 243.297 210.588 242.867 210.88 242.508C211.177 242.148 211.528 241.872 211.934 241.68C212.341 241.487 212.794 241.391 213.294 241.391C213.7 241.391 214.067 241.448 214.395 241.562C214.723 241.677 215.005 241.859 215.239 242.109C215.479 242.359 215.661 242.688 215.786 243.094C215.916 243.495 215.981 243.99 215.981 244.578V250H213.903V244.562C213.903 244.177 213.846 243.872 213.731 243.648C213.622 243.424 213.46 243.266 213.247 243.172C213.039 243.078 212.781 243.031 212.473 243.031C212.156 243.031 211.877 243.096 211.637 243.227C211.403 243.352 211.205 243.526 211.044 243.75C210.887 243.974 210.768 244.232 210.684 244.523C210.601 244.815 210.559 245.13 210.559 245.469Z" fill="#1C1948"/>
<path d="M223.193 241.547H225.068V249.742C225.068 250.508 224.901 251.156 224.568 251.688C224.239 252.224 223.779 252.63 223.185 252.906C222.591 253.188 221.901 253.328 221.114 253.328C220.776 253.328 220.409 253.281 220.013 253.188C219.622 253.094 219.245 252.945 218.88 252.742C218.521 252.544 218.221 252.286 217.982 251.969L218.911 250.75C219.193 251.078 219.51 251.326 219.864 251.492C220.219 251.664 220.601 251.75 221.013 251.75C221.43 251.75 221.784 251.672 222.075 251.516C222.372 251.365 222.599 251.141 222.755 250.844C222.917 250.552 222.997 250.193 222.997 249.766V243.477L223.193 241.547ZM217.482 245.875V245.711C217.482 245.065 217.56 244.479 217.716 243.953C217.872 243.422 218.096 242.966 218.388 242.586C218.685 242.206 219.042 241.911 219.458 241.703C219.88 241.495 220.354 241.391 220.88 241.391C221.437 241.391 221.906 241.492 222.286 241.695C222.672 241.898 222.989 242.188 223.239 242.562C223.495 242.938 223.693 243.383 223.833 243.898C223.979 244.409 224.091 244.971 224.169 245.586V246.031C224.096 246.63 223.979 247.18 223.818 247.68C223.661 248.18 223.453 248.617 223.193 248.992C222.932 249.362 222.609 249.648 222.224 249.852C221.838 250.055 221.385 250.156 220.864 250.156C220.344 250.156 219.875 250.049 219.458 249.836C219.042 249.622 218.685 249.323 218.388 248.938C218.096 248.552 217.872 248.099 217.716 247.578C217.56 247.057 217.482 246.49 217.482 245.875ZM219.544 245.711V245.875C219.544 246.24 219.581 246.581 219.654 246.898C219.726 247.216 219.838 247.497 219.989 247.742C220.14 247.982 220.331 248.169 220.56 248.305C220.789 248.44 221.062 248.508 221.38 248.508C221.807 248.508 222.156 248.419 222.427 248.242C222.703 248.06 222.911 247.812 223.052 247.5C223.198 247.182 223.292 246.826 223.333 246.43V245.203C223.307 244.891 223.25 244.602 223.161 244.336C223.078 244.07 222.961 243.841 222.81 243.648C222.659 243.456 222.466 243.305 222.232 243.195C221.997 243.086 221.719 243.031 221.396 243.031C221.083 243.031 220.81 243.102 220.575 243.242C220.341 243.378 220.148 243.568 219.997 243.812C219.846 244.057 219.732 244.341 219.654 244.664C219.581 244.987 219.544 245.336 219.544 245.711Z" fill="#1C1948"/>
<path d="M100.142 93.6777C97.5974 96.0759 94.2975 96.7068 92.7717 95.087C91.2459 93.4672 92.0721 90.21 94.617 87.8119C95.731 86.7621 96.9896 86.0511 98.1808 85.7191L109.092 75.6928L113.687 80.9143L102.443 90.244C102.041 91.4136 101.256 92.628 100.142 93.6777Z" fill="#FFB6B6"/>
<path d="M157.544 196.857L152.284 196.856L149.782 176.564L157.545 176.565L157.544 196.857Z" fill="#FFB6B6"/>
<path d="M139.523 196.737C139.359 197.013 139.273 197.904 139.273 198.224C139.273 199.211 140.072 200.01 141.058 200.01H157.347C158.019 200.01 158.565 199.465 158.565 198.792V198.114C158.565 198.114 159.37 196.075 157.711 193.562C157.711 193.562 155.65 195.53 152.569 192.448L151.66 190.802L145.083 195.613L141.438 196.061C140.64 196.16 139.933 196.046 139.523 196.737Z" fill="#2F2E41"/>
<path d="M194.443 193.868L189.272 194.829L183.107 175.335L190.74 173.917L194.443 193.868Z" fill="#FFB6B6"/>
<path d="M176.704 197.042C176.593 197.343 176.671 198.235 176.73 198.55C176.91 199.52 177.841 200.16 178.811 199.98L194.826 197.005C195.487 196.882 195.923 196.246 195.801 195.585L195.677 194.918C195.677 194.918 196.097 192.766 194.007 190.599C194.007 190.599 192.339 192.91 188.747 190.443L187.553 188.99L181.965 194.921L178.463 196.028C177.697 196.27 176.981 196.288 176.704 197.042Z" fill="#2F2E41"/>
<path d="M181.555 96.5728L194.51 183.334L182.45 184.907L161.475 116.2L158.853 187.005H147.612C147.612 187.005 137.903 108.858 140.775 99.417C143.646 89.9764 181.555 96.5728 181.555 96.5728Z" fill="#2F2E41"/>
<path d="M153.61 27.0388H166.194L168.03 31.4969C168.03 31.4969 175.371 35.6927 175.371 37.2662C175.371 38.8396 179.828 78.4378 179.828 78.4378L182.188 100.204C182.188 100.204 154.658 114.102 141.025 99.9415L143.646 75.8154C143.646 75.8154 141.549 38.0529 142.598 36.4795C143.646 34.906 151.512 31.2347 151.512 31.2347L153.61 27.0388Z" fill="#6C63FF"/>
<path d="M149.673 33.8046C149.673 33.8046 153.509 39.6017 152.299 41.9865C151.088 44.3712 132.203 67.2578 132.203 67.2578L109.416 86.0268L102.737 80.0985L124.2 59.6194L138.068 39.163C140.275 34.9523 145.038 32.7532 149.673 33.8046Z" fill="#6C63FF"/>
<path d="M192.947 109.154C193.495 112.608 192.158 115.691 189.96 116.04C187.762 116.388 185.537 113.871 184.989 110.417C184.749 108.905 184.871 107.464 185.267 106.293L183.13 91.6284L190.031 90.7716L191.406 105.319C192.146 106.31 192.707 107.642 192.947 109.154Z" fill="#FFB6B6"/>
<path d="M166.105 34.3781C166.105 34.3781 176.956 31.9489 178.928 37.9681C180.899 43.9873 192.746 101.082 192.746 101.082L183.721 102.081L176.944 62.9657L166.105 34.3781Z" fill="#6C63FF"/>
<path d="M160.333 24.1192C166.309 24.1192 171.153 19.274 171.153 13.297C171.153 7.32011 166.309 2.47485 160.333 2.47485C154.358 2.47485 149.513 7.32011 149.513 13.297C149.513 19.274 154.358 24.1192 160.333 24.1192Z" fill="#FFB6B6"/>
<path d="M166.664 22.4861C165.97 22.5198 165.054 22.3876 164.938 21.7027C164.856 21.2195 165.264 20.803 165.647 20.4979C166.182 20.0725 166.746 19.6759 167.205 19.1701C167.664 18.6643 168.018 18.0247 168.027 17.3415C168.036 16.6582 167.629 15.9454 166.975 15.7465C166.321 15.5476 165.506 16.0337 165.496 16.717C164.866 15.7599 164.783 14.5539 164.75 13.4084C164.73 12.7381 164.722 12.0675 164.724 11.3969C164.727 10.4808 164.75 9.5649 164.773 8.64907C164.323 8.62536 160.689 9.99323 160.164 9.99323C159.713 9.99323 156.09 9.27386 156.331 8.24151C156.26 8.90133 152.804 10.0898 152.733 9.74445C152.663 9.39909 152.405 9.03459 152.053 9.05521C151.682 9.07695 151.481 9.48812 151.356 9.83816C151.078 10.6197 150.401 11.9703 149.677 11.5667C144.192 8.51152 148.614 7.55997 149.264 6.3175C150.063 4.79021 150.915 3.20124 152.336 2.22689C153.758 1.25254 154.88 0.0891482 155.999 1.39929C158.808 -0.648617 161.595 -0.15463 164.869 1.01316C168.143 2.18094 170.762 5.03822 171.641 8.4017C172.044 9.94341 173.124 10.6199 172.319 11.9953C173.206 13.1849 172.726 12.5119 172.901 13.9853C173.039 15.1479 172.923 16.375 172.347 17.3939C171.731 18.4825 170.642 19.2398 169.476 19.6937C168.311 20.1476 168.11 22.4272 166.872 22.6057" fill="#2F2E41"/>
<path d="M220.417 191.751C221.5 191.818 222.099 190.472 221.279 189.688L221.197 189.363C221.208 189.337 221.219 189.312 221.23 189.286C222.325 186.673 226.038 186.691 227.124 189.308C228.089 191.63 229.316 193.956 229.618 196.412C229.754 197.496 229.693 198.6 229.452 199.664C231.711 194.728 232.9 189.339 232.9 183.919C232.9 182.557 232.826 181.195 232.673 179.837C232.548 178.726 232.375 177.621 232.152 176.527C230.943 170.613 228.324 164.979 224.548 160.274C222.733 159.281 221.219 157.73 220.304 155.87C219.976 155.199 219.719 154.478 219.597 153.743C219.803 153.77 220.376 150.623 220.22 150.43C220.508 149.993 221.023 149.775 221.337 149.349C222.901 147.228 225.056 147.599 226.181 150.48C228.583 151.693 228.607 153.705 227.132 155.64C226.194 156.87 226.065 158.536 225.242 159.854C225.327 159.962 225.415 160.067 225.5 160.176C227.053 162.167 228.395 164.308 229.528 166.558C229.208 164.058 229.68 161.046 230.485 159.105C231.402 156.893 233.12 155.03 234.633 153.118C236.451 150.821 240.178 151.824 240.498 154.735C240.501 154.763 240.504 154.792 240.507 154.82C240.282 154.947 240.062 155.081 239.847 155.224C238.62 156.035 239.044 157.937 240.498 158.162L240.531 158.167C240.449 158.976 240.31 159.779 240.107 160.568C242.048 168.077 237.858 170.811 231.874 170.934C231.742 171.002 231.613 171.07 231.481 171.134C232.087 172.842 232.572 174.593 232.931 176.368C233.252 177.936 233.476 179.522 233.601 181.114C233.757 183.123 233.743 185.142 233.574 187.147L233.584 187.076C234.014 184.867 235.213 182.804 236.954 181.375C239.547 179.244 243.211 178.459 246.009 176.747C247.356 175.922 249.082 176.988 248.847 178.549L248.835 178.624C248.419 178.793 248.012 178.99 247.619 179.21C247.395 179.337 247.174 179.472 246.959 179.614C245.733 180.425 246.156 182.328 247.61 182.552L247.643 182.557C247.667 182.56 247.687 182.564 247.711 182.567C246.996 184.264 246 185.84 244.754 187.198C243.54 193.752 238.327 194.374 232.751 192.466H232.748C232.138 195.121 231.247 197.716 230.103 200.189H220.653C220.619 200.084 220.589 199.976 220.558 199.871C221.432 199.925 222.313 199.874 223.173 199.715C222.472 198.854 221.771 197.987 221.07 197.127C221.053 197.11 221.039 197.093 221.026 197.076C220.67 196.636 220.311 196.199 219.956 195.758C219.933 194.406 220.095 193.058 220.417 191.751Z" fill="#F2F2F2"/>
<path d="M0 200.376C0 200.722 0.277932 201 0.624031 201H250.376C250.722 201 251 200.722 251 200.376C251 200.03 250.722 199.752 250.376 199.752H0.624031C0.277932 199.752 0 200.03 0 200.376Z" fill="#CCCCCC"/>
<path d="M56.364 143.628L56.2929 142.581C58.3386 142.442 60.3898 142.162 62.3892 141.748L62.6017 142.775C60.5557 143.199 58.4572 143.486 56.364 143.628ZM50.0614 143.535C47.9452 143.344 45.8534 143.041 43.8442 142.634L44.0526 141.605C46.0241 142.005 48.0776 142.303 50.1556 142.49L50.0614 143.535ZM68.6655 141.077L68.3137 140.088C70.2411 139.402 72.1392 138.576 73.9558 137.632L74.4392 138.563C72.5803 139.529 70.6377 140.375 68.6655 141.077ZM37.7686 141.011C35.7598 140.337 33.8013 139.532 31.9478 138.618L32.4113 137.677C34.223 138.57 36.1374 139.357 38.102 140.016L37.7686 141.011ZM26.5108 135.44C24.7795 134.252 23.1237 132.929 21.5897 131.506L22.3031 130.736C23.7994 132.125 25.4147 133.416 27.1038 134.574L26.5108 135.44ZM79.8129 135.286L79.2072 134.43C80.8776 133.248 82.4824 131.939 83.9772 130.542L84.6931 131.308C83.164 132.738 81.522 134.076 79.8129 135.286ZM17.2962 126.886C15.9914 125.257 14.7885 123.51 13.7214 121.694L14.6257 121.162C15.6673 122.935 16.8412 124.64 18.1145 126.23L17.2962 126.886ZM88.9914 126.707L88.1783 126.044C89.472 124.455 90.6677 122.763 91.7316 121.016L92.6272 121.562C91.5385 123.35 90.3154 125.08 88.9914 126.707ZM10.9167 116.053C10.1207 114.129 9.44399 112.121 8.90553 110.085L9.91945 109.816C10.4459 111.808 11.1075 113.771 11.8856 115.651L10.9167 116.053ZM95.5289 115.971L94.5672 115.552C95.3837 113.675 96.0774 111.723 96.6289 109.749L97.6387 110.032C97.0744 112.051 96.3646 114.05 95.5289 115.971ZM7.69574 103.905C7.42767 101.833 7.29069 99.7187 7.28889 97.6234L8.33763 97.6223C8.33943 99.6736 8.47334 101.742 8.73578 103.771L7.69574 103.905ZM98.9133 103.864L97.8742 103.722C98.1492 101.701 98.2885 99.6347 98.2885 97.5814L98.2883 97.4866H99.337L99.3373 97.5773C99.3373 99.6818 99.1946 101.796 98.9133 103.864ZM8.72528 91.473L7.68473 91.3398C7.95075 89.2558 8.35402 87.176 8.88351 85.159L9.89794 85.4254C9.37997 87.3986 8.98542 89.4335 8.72528 91.473ZM97.8617 91.3475C97.5813 89.3182 97.1578 87.2913 96.6038 85.3232L97.6131 85.0389C98.1805 87.0528 98.6134 89.1272 98.9007 91.2041L97.8617 91.3475ZM11.8533 79.5877L10.8834 79.1882C11.6856 77.2401 12.6253 75.3414 13.6761 73.5449L14.5814 74.0745C13.5547 75.8293 12.6368 77.6842 11.8533 79.5877ZM94.5317 79.5283C93.7133 77.6568 92.7568 75.8221 91.6883 74.075L92.5829 73.5275C93.6765 75.3153 94.6553 77.193 95.4926 79.1083L94.5317 79.5283ZM88.1278 69.0571C86.8333 67.4729 85.4174 65.962 83.9193 64.5665L84.6342 63.7988C86.1668 65.2267 87.6155 66.7725 88.94 68.3933L88.1278 69.0571ZM18.0587 69.0021L17.2389 68.348C18.549 66.7052 19.989 65.1491 21.5183 63.723L22.2337 64.4902C20.7415 65.8816 19.3369 67.3994 18.0587 69.0021ZM79.1408 60.6865C77.4653 59.5056 75.6951 58.4305 73.879 57.4909L74.3608 56.5593C76.2192 57.5206 78.0307 58.6208 79.7451 59.8291L79.1408 60.6865ZM27.0255 60.6416L26.4304 59.7776C28.1436 58.5975 29.9704 57.5242 31.8603 56.5872L32.3263 57.527C30.4807 58.4418 28.6974 59.4897 27.0255 60.6416ZM38.0119 55.1758L37.6765 54.1819C39.6239 53.5248 41.6671 52.975 43.7492 52.5483L43.9597 53.5758C41.9198 53.994 39.9186 54.5323 38.0119 55.1758ZM68.2294 55.0442C66.3002 54.3617 64.3041 53.8073 62.2968 53.3955L62.5072 52.368C64.5617 52.7893 66.6046 53.3568 68.5792 54.0552L68.2294 55.0442ZM50.0606 52.6812L49.9648 51.6369C51.0146 51.5406 52.0938 51.4702 53.1725 51.4276C54.1931 51.4156 55.2508 51.4609 56.2673 51.5278L56.1987 52.5747C55.2047 52.5091 54.1936 52.4761 53.1933 52.4761C52.1532 52.5176 51.0924 52.587 50.0606 52.6812Z" fill="#3F3D56"/>
<path d="M18.287 140.496C26.1063 140.496 32.445 134.155 32.445 126.335C32.445 118.514 26.1063 112.174 18.287 112.174C10.4678 112.174 4.12905 118.514 4.12905 126.335C4.12905 134.155 10.4678 140.496 18.287 140.496Z" fill="#6C63FF"/>
<path d="M12.746 121.586C12.746 121.148 13.1103 120.792 13.5598 120.792H23.0142C23.4637 120.792 23.828 121.148 23.828 121.586V131.083C23.828 131.521 23.4637 131.877 23.0142 131.877H13.5598C13.1103 131.877 12.746 131.521 12.746 131.083V121.586ZM16.1697 130.071V125.066H14.5067V130.071H16.1697ZM15.3385 124.382C15.9182 124.382 16.2791 123.999 16.2791 123.518C16.2687 123.027 15.9189 122.653 15.3496 122.653C14.7803 122.653 14.4083 123.027 14.4083 123.518C14.4083 123.999 14.7692 124.382 15.3274 124.382H15.3385ZM18.7379 130.071V127.276C18.7379 127.126 18.749 126.977 18.7933 126.87C18.9132 126.571 19.1868 126.262 19.6467 126.262C20.2485 126.262 20.4889 126.72 20.4889 127.394V130.071H22.1519V127.201C22.1519 125.663 21.3318 124.948 20.2375 124.948C19.3551 124.948 18.9596 125.433 18.7379 125.774V125.791H18.7268L18.7379 125.774V125.066H17.0756C17.0964 125.536 17.0756 130.071 17.0756 130.071H18.7379Z" fill="white"/>
<path d="M60.0962 66.3546C67.9155 66.3546 74.2542 60.0145 74.2542 52.1937C74.2542 44.3728 67.9155 38.0327 60.0962 38.0327C52.277 38.0327 45.9383 44.3728 45.9383 52.1937C45.9383 60.0145 52.277 66.3546 60.0962 66.3546Z" fill="#6C63FF"/>
<path fill-rule="evenodd" clip-rule="evenodd" d="M60.2769 49.6283C61.0515 48.5806 61.9078 47.7558 63.0029 47.7558C65.0703 47.7558 66.7729 50.3879 66.7738 53.5218C66.7738 55.4336 65.9508 56.6315 64.4727 56.6315C63.1848 56.6315 62.4737 55.9086 61.1976 53.7731L60.6408 52.8356L60.5424 52.6712C60.3972 52.4258 60.2497 52.1817 60.1 51.939L59.1168 53.6755C57.7204 56.1173 56.9342 56.6315 55.8425 56.6315C54.3251 56.6315 53.4187 55.4503 53.4187 53.5769C53.4187 50.5841 55.0838 47.7558 57.2564 47.7558C57.5226 47.7558 57.778 47.7883 58.0276 47.8576C58.2863 47.9294 58.5376 48.0413 58.7896 48.1974C59.2712 48.4971 59.7528 48.9612 60.2769 49.6283ZM61.5423 51.4849C61.3319 51.1426 61.1299 50.8279 60.9355 50.539L60.9305 50.5324C61.6357 49.4429 62.2183 48.9011 62.9102 48.9011C64.3483 48.9011 65.4993 51.0191 65.4993 53.6203C65.4993 54.6121 65.1738 55.1873 64.5019 55.1873C63.8567 55.1873 63.5487 54.7615 62.3235 52.7914L61.5423 51.4849ZM57.4634 49.2217C58.0685 49.3052 58.6193 49.751 59.4164 50.8922C58.9565 51.5966 58.5016 52.3042 58.0518 53.0151C56.9192 54.7899 56.5277 55.1881 55.8976 55.1881C55.2491 55.1881 54.8626 54.6188 54.8626 53.602C54.8626 51.4298 55.946 49.2075 57.238 49.2075C57.314 49.2075 57.3891 49.2117 57.4634 49.2217Z" fill="white"/>
<path d="M14.5353 88.7538C22.3546 88.7538 28.6933 82.4137 28.6933 74.5929C28.6933 66.772 22.3546 60.4319 14.5353 60.4319C6.71612 60.4319 0.377373 66.772 0.377373 74.5929C0.377373 82.4137 6.71612 88.7538 14.5353 88.7538Z" fill="#6C63FF"/>
<path d="M12.2504 79.5882C16.8895 79.5882 19.4272 75.7435 19.4272 72.4153C19.4272 72.3077 19.4272 72.1986 19.4226 72.091C19.9166 71.7333 20.3431 71.2904 20.6818 70.7831C20.2203 70.9866 19.7312 71.1207 19.2305 71.1811C19.758 70.8658 20.153 70.3696 20.3422 69.7848C19.8467 70.0785 19.3043 70.2846 18.7388 70.3942C17.7843 69.3775 16.1866 69.3272 15.1701 70.2819C14.5137 70.8984 14.2352 71.8178 14.4393 72.695C12.4112 72.5933 10.5215 71.6356 9.24016 70.0599C8.5726 71.2131 8.91484 72.6866 10.0223 73.4274C9.62242 73.4138 9.23134 73.3064 8.88059 73.1138V73.1484C8.88201 74.3485 9.72712 75.3819 10.9028 75.6214C10.6863 75.681 10.4627 75.7107 10.2382 75.7097C10.0799 75.7102 9.92194 75.6955 9.76645 75.6659C10.0969 76.6933 11.0441 77.3966 12.1229 77.4157C11.229 78.118 10.1248 78.4988 8.98815 78.497C8.78787 78.4978 8.58773 78.4863 8.38887 78.4624C9.5425 79.198 10.8823 79.5886 12.2504 79.5882Z" fill="white"/>
<path d="M65.5073 156.051C73.3266 156.051 79.6653 149.711 79.6653 141.891C79.6653 134.07 73.3266 127.73 65.5073 127.73C57.6881 127.73 51.3493 134.07 51.3493 141.891C51.3493 149.711 57.6881 156.051 65.5073 156.051Z" fill="#6C63FF"/>
<path d="M65.5073 135.851C63.8687 135.851 63.6626 135.858 63.0188 135.887C62.3749 135.917 61.9364 136.018 61.5522 136.168C61.1492 136.32 60.7842 136.557 60.4826 136.865C60.1755 137.167 59.9378 137.532 59.786 137.935C59.6365 138.318 59.5346 138.757 59.5052 139.399C59.4765 140.045 59.469 140.25 59.469 141.891C59.469 143.531 59.4765 143.736 59.5052 144.38C59.5354 145.024 59.6365 145.462 59.786 145.846C59.9407 146.244 60.1468 146.58 60.4826 146.916C60.8178 147.252 61.1544 147.459 61.5514 147.613C61.9364 147.763 62.3742 147.864 63.0172 147.894C63.6618 147.923 63.8671 147.93 65.5073 147.93C67.1475 147.93 67.352 147.923 67.9966 147.894C68.639 147.864 69.079 147.763 69.4632 147.613C69.8659 147.461 70.2307 147.224 70.532 146.916C70.8679 146.58 71.0739 146.244 71.2287 145.846C71.3774 145.462 71.4793 145.024 71.5094 144.38C71.5381 143.736 71.5457 143.531 71.5457 141.891C71.5457 140.25 71.5381 140.045 71.5094 139.4C71.4793 138.757 71.3774 138.318 71.2287 137.935C71.0769 137.532 70.8391 137.167 70.532 136.865C70.2305 136.557 69.8655 136.319 69.4624 136.168C69.0775 136.018 68.6382 135.917 67.9959 135.887C67.3513 135.858 67.1467 135.851 65.5058 135.851H65.5073ZM64.9661 136.94H65.5081C67.1203 136.94 67.3113 136.945 67.9476 136.974C68.5363 137.001 68.8563 137.1 69.0692 137.182C69.3507 137.291 69.5523 137.423 69.7636 137.634C69.975 137.845 70.1055 138.046 70.215 138.329C70.298 138.541 70.3961 138.861 70.4225 139.45C70.452 140.086 70.458 140.277 70.458 141.889C70.458 143.501 70.452 143.693 70.4225 144.329C70.3961 144.918 70.2972 145.237 70.215 145.45C70.1182 145.712 69.9637 145.949 69.7629 146.144C69.5515 146.355 69.3507 146.486 69.0684 146.595C68.8571 146.678 68.5371 146.777 67.9476 146.804C67.3113 146.832 67.1203 146.839 65.5081 146.839C63.8958 146.839 63.7041 146.832 63.0678 146.804C62.4791 146.777 62.1598 146.678 61.9469 146.595C61.6847 146.499 61.4474 146.344 61.2525 146.144C61.0516 145.949 60.8968 145.712 60.7997 145.449C60.7174 145.237 60.6185 144.917 60.5921 144.328C60.5634 143.692 60.5574 143.501 60.5574 141.887C60.5574 140.275 60.5634 140.085 60.5921 139.448C60.6193 138.859 60.7174 138.539 60.8004 138.326C60.9099 138.045 61.0412 137.843 61.2525 137.632C61.4639 137.42 61.6647 137.29 61.9469 137.18C62.1598 137.097 62.4791 136.999 63.0678 136.972C63.6249 136.946 63.8407 136.939 64.9661 136.938L64.9661 136.94ZM68.731 137.942C68.3309 137.942 68.0064 138.267 68.0064 138.667C68.0064 139.067 68.3309 139.392 68.731 139.392C69.1312 139.392 69.4557 139.067 69.4557 138.667C69.4557 138.267 69.1312 137.942 68.731 137.942ZM65.5081 138.789C63.7954 138.762 62.3853 140.129 62.3586 141.843C62.3319 143.556 63.6986 144.966 65.4113 144.993C65.4436 144.993 65.4758 144.993 65.5081 144.993C67.2207 144.966 68.5875 143.556 68.5608 141.842C68.5346 140.167 67.1831 138.815 65.5081 138.789ZM65.5081 139.877C66.6198 139.877 67.5215 140.778 67.522 141.89C67.5224 143.002 66.6215 143.904 65.5098 143.904H65.5081C64.3963 143.904 63.495 143.003 63.495 141.891C63.495 140.779 64.3963 139.877 65.5081 139.877Z" fill="white"/>
</svg>
